<?xml version="1.0" encoding="utf-8"?>
<!-- Uploaded to: SVG Repo, www.svgrepo.com, Generator: SVG Repo Mixer Tools -->
<svg width="800px" height="800px" viewBox="0 0 1024 1024" class="icon"  version="1.1" xmlns="http://www.w3.org/2000/svg"><path d="M900.5 370.6v92.6c0 9.4-5.9 17.8-14.8 20.9l-151.9 52.2V396.5l-101.9-33.1 105.6-45.6c11.9-6.1 21.9-12 30-17.8l117.3 48c9.4 3.5 15.7 12.6 15.7 22.6z" fill="#FFD6C0" /><path d="M887.1 492.2v4.4l-12.3 4.2v-8.6z" fill="#EF4666" /><path d="M874.8 500.8v262.3l-141 54V549.2z" fill="#FF9271" /><path d="M912.8 370.6v92.6c0 14.7-9.3 27.8-23.2 32.6l-2.5 0.9v-4.4h-12.3v8.6l-141 48.4v-13L885.6 484c8.9-3.1 14.8-11.5 14.8-20.9v-92.6c0-10-6.3-19-15.7-22.5l-117.3-48c4.2-2.8 7.9-5.7 11.1-8.6l110.6 45.2c14.2 5.1 23.7 18.8 23.7 34zM771.9 213.5c12.8 17.8 17.5 32.5 14.6 44.9-2.1 9.1-8.4 17.8-19.5 26.8-8.6 6.9-20.1 14-34.8 21.5l-116.4 50.1c-3.8-20.9-24.2-38.3-53-47.2l92.2-101c14.1-19.3 33.3-30.5 54.5-31.5 17.8-1 35.6 6.1 46.2 18l16.2 18.4z" fill="#EF4666" /><path d="M769 287.5l9.6 4c-3.2 3-6.9 5.8-11.1 8.6l-3.1-1.2 4.6-11.4zM733.8 817.1v6.2h-12.4v-1.5zM733.8 536.3v12.9l-3.1 1.2-4.1-11.7zM721.4 405.5v416.3L635 854.9v-419l-58.4-22.4c21.5-9.8 36.2-24.8 39.3-42.4l105.5 34.4zM635 854.9v8.9h-12.4v-4.2z" fill="#EF4666" /><path d="M635 435.9v419l-12.3 4.7V600.2l8.4-3.1-4.3-11.6-4.1 1.5V444.3l-63.8-24.5c6.3-1.6 12.3-3.8 17.8-6.3l58.3 22.4z" fill="#EF4666" /><path d="M764.4 298.8l3.1 1.2c-8.2 5.8-18.2 11.7-30 17.8l-105.6 45.6 101.9 33.1v139.8l-7.2 2.5 4.1 11.6 3.1-1.1v267.8l-12.3 4.7V405.5l-105.6-34.3c0.4-2.2 0.6-4.7 0.6-7 0-2.5-0.2-4.9-0.7-7.3l116.4-50.1c14.7-7.5 26.2-14.6 34.8-21.5l2 2.2-4.6 11.3zM626.7 585.5l4.3 11.7-8.4 3V587z" fill="#EF4666" /><path d="M622.6 600.2v259.3l-110 42.1-123-47.4V588.5L497 632.7c6.1 2.6 12.3 3.8 18.8 3.8 5.4 0 11-1 16.3-2.8l90.5-33.5z" fill="#FF9271" /><path d="M622.6 444.3V587l-94.7 35.1c-8.5 3.1-17.7 2.8-26.1-0.7l-112.2-46.1V440.9l65.4-29.6c17 8.6 38.9 13.8 63.2 13.8 14.6 0 28.2-1.9 40.5-5.3l63.9 24.5z" fill="#FFD6C0" /><path d="M621.4 233.2l-4.7 11.4-8-3.3 8.7-9.7z" fill="#EF4666" /><path d="M781.4 205.8c15.6 21.2 21 39.3 17 55.6-2.6 10.6-8.9 20.4-19.9 30l-9.6-4-2-2.2c11.1-9 17.4-17.7 19.5-26.8 3-12.5-1.7-27.2-14.6-44.9l-16.3-18.3c-10.6-12-28.4-19-46.2-18-21.1 1-40.4 12.2-54.5 31.5l-92.2 101c-4.3-1.4-8.8-2.5-13.5-3.3l59.4-65.1 8 3.3 4.7-11.4-4-1.6 28-30.7c15.8-21.9 38.5-34.9 63.3-36.1 21.7-1.1 42.7 7.2 55.9 22.1l17 18.9zM615.7 356.9c0.5 2.3 0.7 4.8 0.7 7.3 0 2.3-0.2 4.8-0.6 7l-7.4-2.5-0.1-8.8 4.1-1.6 3.3-1.4z" fill="#EF4666" /><path d="M608.7 241.3l-59.4 65.1c-9.6-2.1-20.1-3.1-31-3.1-9.3 0-18.2 0.7-26.7 2.2l-55.4-71.7 70-24.7c8.5-3.3 17.8-3.2 26.2 0.4l76.3 31.8z" fill="#FFD6C0" /><path d="M561.1 407.6l15.4 5.9c-5.4 2.5-11.5 4.7-17.8 6.3l-2.1-0.7 4.5-11.5zM562.7 309.7l-6.8 7.5-9-8.3 2.3-2.6c4.8 0.9 9.2 2 13.5 3.4zM518.3 315.6c46.6 0 85.8 22.2 85.8 48.5 0 17.8-17.7 33.6-43.5 42.1-12.5 4.2-27 6.5-42.4 6.5-46.7 0-85.9-22.2-85.9-48.7 0-4.6 1.2-9 3.5-13.3 10.5-19.9 43.9-35.1 82.5-35.1zM506.2 209l-70 24.7-7.9-10.2 73.6-25.9c11.2-4.4 23.8-4.3 35.3 0.4l80.3 33.7-8.8 9.6-76.3-31.9c-8.4-3.6-17.7-3.7-26.2-0.4zM501.9 621.4c8.4 3.6 17.5 3.8 26.1 0.7l94.7-35.1v13.2l-90.5 33.5c-5.3 1.9-10.9 2.8-16.3 2.8-6.4 0-12.7-1.2-18.8-3.8l-107.4-44.2v-13.2l112.2 46.1zM491.6 305.5l0.1 0.1-9.8 7.5-3.7-4.8c4.4-1.1 8.8-2.1 13.4-2.8z" fill="#EF4666" /><path d="M384.3 186.8l94 121.5c-22.7 6.2-40.8 17.4-50.5 31.6l-1.6 0.7-118.4-57.4a43.9 43.9 0 0 1-24.5-33.7c-2.1-14.6 3.5-29.1 14.6-39l33.1-28.9c7.7-6.8 17.5-10 27.8-9 10.2 1 19.2 6.1 25.5 14.2zM442.5 403.4l8.5-3.8 5.1 11.2-1 0.5c-4.6-2.5-8.8-5.1-12.6-7.9z" fill="#EF4666" /><path d="M482 313.1l9.8-7.5-0.1-0.1c8.5-1.5 17.4-2.2 26.7-2.2 10.9 0 21.4 1 31 3.1l-2.3 2.6 9 8.3 6.8-7.5c28.8 8.9 49.1 26.3 53 47.2l-3.3 1.5-4.1 1.6 0.1 8.8 7.4 2.5c-3.1 17.5-17.8 32.6-39.3 42.4l-15.4-5.9-0.5-1.4c25.8-8.5 43.5-24.3 43.5-42.1 0-26.3-39.3-48.5-85.8-48.5-38.5 0-72 15.2-82.5 35.2l-1.1-0.5-4.9-11.2-2 0.9c9.8-14.2 27.8-25.4 50.5-31.6l3.5 4.4zM442.5 403.4L377.3 433v416.4l-80.8-31.1V412.2l124.2-55.6c-0.5 2.5-0.7 4.9-0.7 7.5 0 15.1 8.4 28.8 22.5 39.3zM428.3 223.5l7.9 10.2-8.1 2.9-4-11.6z" fill="#EF4666" /><path d="M451 399.6l-8.5 3.8c-14.1-10.5-22.5-24.2-22.5-39.3 0-2.6 0.2-5.1 0.7-7.5l14-6.3 1.1 0.5c-2.2 4.3-3.5 8.8-3.5 13.3 0 26.4 39.3 48.7 85.9 48.7 15.3 0 29.9-2.3 42.4-6.5l0.5 1.4-4.4 11.5 2.1 0.7c-12.3 3.5-25.9 5.3-40.5 5.3-24.3 0-46.2-5.2-63.2-13.8l1-0.5-5.1-11.3zM428.7 341.9l-5.3 11.1-1.6-0.7c1.1-4 3-7.7 5.2-11.2l1.7 0.8z" fill="#EF4666" /><path d="M426.2 340.7l1.6-0.7c-0.2 0.4-0.5 0.7-0.7 1.1l-0.9-0.4z" fill="#231815" /><path d="M426.2 340.7l0.9 0.4c-2.2 3.6-4.1 7.3-5.2 11.2l-10.4-5.1 14.7-6.5z" fill="#EF4666" /><path d="M429.7 339.1l4.9 11.2-14 6.3c0.2-1.5 0.6-3 1.1-4.3l1.6 0.7 5.3-11.1-1.6-0.9c0.2-0.4 0.5-0.7 0.7-1.1l2-0.8zM389.6 854.3v4.2h-12.3v-9.1z" fill="#EF4666" /><path d="M389.6 588.5v265.8l-12.3-4.9V584.7h2.9zM389.6 575.3v13.2l-9.4-3.8 4.7-11.4z" fill="#EF4666" /><path d="M377.3 584.7V433l65.2-29.6c3.8 2.8 8 5.4 12.6 7.9l-65.4 29.6v134.4l-4.7-2-4.7 11.4h-3zM296.5 818.3v6.9h-12.4v-11.7z" fill="#EF4666" /><path d="M296.5 412.2v406.1l-12.3-4.8v-266l4.3 1.4 3.7-11.7-8-2.5V404.1l127.3-56.9 10.4 5.1c-0.5 1.4-0.9 2.8-1.1 4.3l-124.3 55.6zM887.1 496.6v274.9L512.6 914.9l-228.9-88.3 0.4-1.4h12.4v-6.9l80.8 31.1v9.1h12.3v-4.2l123 47.4 110-42.1v4.2H635v-8.9l86.4-33.1v1.5h12.4v-6.2l141-54V500.8z" fill="#EF4666" /><path d="M292.5 289.4l-0.6-1.6c3.2 2.7 6.7 4.8 10.4 6.7l109.2 52.7-127.3 56.9v130.5L164 496.9v-0.2h-0.7l-28.3-8.9c-7.4-2.2-12.5-9-12.5-16.8V369.7c0-8.5 5.1-16.1 12.8-19.3l157.2-61z" fill="#FFD6C0" /><path d="M292.2 537.1l-3.7 11.8-4.4-1.4v-12.8zM288.1 277.9l3.8 9.9c-3.1-2.3-5.9-5.1-8.4-8.2l4.6-1.7z" fill="#EF4666" /><path d="M284.1 547.5v266l-101.5-39.1c-11.1-4.3-18.6-15.2-18.6-27.2V509.9l120.1 37.6z" fill="#FF9271" /><path d="M284.1 534.7v12.8L164 509.9v-13zM270.9 251.3c-2.5-18.8 4.4-37.5 18.8-50l33.1-28.9c10.2-9.1 23.5-13.3 37.2-12 13.6 1.2 25.7 8 34.1 18.9l34.2 44.2-4.2 1.5 4.1 11.6 8-2.8 55.4 71.7c-4.6 0.7-9 1.7-13.3 2.8l-94-121.5c-6.3-8.2-15.3-13.2-25.6-14.2-10.2-1-20.1 2.2-27.8 9l-33.1 28.9c-11.1 9.9-16.7 24.5-14.6 39 2 14.7 11.1 27.3 24.5 33.7l118.4 57.4-14.7 6.5-109.2-52.7c-3.7-1.9-7.2-4-10.4-6.7l-3.8-9.9-4.6 1.7c-6.5-7.7-11-17.6-12.5-28.2zM164 496.9v13l-12.4-3.9v-9.4h11.7z" fill="#EF4666" /><path d="M164 496.6v0.3l-0.7-0.3z" fill="#231815" /><path d="M151.6 747.2V506l12.3 3.8v237.3c0 12 7.5 22.8 18.6 27.2L284 813.4v11.7l-0.5 1.4L178 785.7c-15.6-5.9-26.4-21.5-26.4-38.5z" fill="#EF4666" /><path d="M110.2 369.7c0-13.5 8.2-25.6 20.6-30.7l152.8-59.3c2.5 3.1 5.3 5.8 8.4 8.2l0.6 1.6-157.2 61c-7.8 3.2-12.8 10.7-12.8 19.3V471c0 7.8 5.1 14.6 12.5 16.8l28.3 8.9h-11.6v9.4l-20.4-6.4c-12.6-4-21.1-15.4-21.1-28.6V369.7z" fill="#EF4666" /></svg>